# xmcd
#
# Track frame offsets: 
#        150
#        10408
#        24223
#        34661
#        43246
#        54006
#        64856
#        75635
#        89916
#        99573
#        112965
#        123981
#        132535
#        144398
#        156426
#        169661
#        181949
#        195637
#        206877
#        216829
#        231895
#        245402
#        255110
#        270118
#
# Disc length: 3757 seconds
#
# Revision: 0
# Processed by: cddbd v1.5.2PL0 Copyright (c) Steve Scherf et al.
# Submitted via: ExactAudioCopy v0.99pb3
#
DISCID=480eab18
DTITLE=Cross Country Grass - Papa's Wagon - Tribute To Bluegrass
DYEAR=1900
DGENRE=Country
TTITLE0=01 - The Last Thing On My Mind
TTITLE1=02 - Fair And Tender Ladies
TTITLE2=03 - Papa's Wagon
TTITLE3=04 - The Lonely Heart
TTITLE4=05 - Washington Files
TTITLE5=06 - Don't Say Goodbye
TTITLE6=07 - Don't Laugh
TTITLE7=08 - You Don't Have Very Far To Go
TTITLE8=09 -The Medicine Show
TTITLE9=10 - This Heart Of Mine
TTITLE10=11 -Runaway
TTITLE11=12 - Yesterdays Gone
TTITLE12=13 - No Mother Or Dad
TTITLE13=14 - Darby's Castle
TTITLE14=15 - Sledd Ride
TTITLE15=16 - When The Roses Bloom Again
TTITLE16=17 - Rebel Soldier
TTITLE17=18 - Tribute To Bluegrass
TTITLE18=19 - East Virginia Blues
TTITLE19=20 - Maiden's Prayer
TTITLE20=21 - Femme Aux Yeux Bleu
TTITLE21=22 - Take Me Back To Kentucky
TTITLE22=23 - Where The Roses Never Fade
TTITLE23=24 - Cabin Home On The Hill
EXTD=
EXTT0=
EXTT1=
EXTT2=
EXTT3=
EXTT4=
EXTT5=
EXTT6=
EXTT7=
EXTT8=
EXTT9=
EXTT10=
EXTT11=
EXTT12=
EXTT13=
EXTT14=
EXTT15=
EXTT16=
EXTT17=
EXTT18=
EXTT19=
EXTT20=
EXTT21=
EXTT22=
EXTT23=
PLAYORDER=
